<?xml version="1.0" encoding="UTF-8"?>
<svg xmlns="http://www.w3.org/2000/svg" xmlns:xlink="http://www.w3.org/1999/xlink" viewBox="0 0 256 256" width="256px" height="256px">
<defs>
<linearGradient id="linear0" gradientUnits="userSpaceOnUse" x1="165.96875" y1="157.140625" x2="165.96875" y2="188.356873" gradientTransform="matrix(1.132743,0,0,1.132743,0,0)">
<stop offset="0" style="stop-color:rgb(14.901961%,96.078432%,100%);stop-opacity:1;"/>
<stop offset="1" style="stop-color:rgb(49.019608%,82.352942%,81.568629%);stop-opacity:1;"/>
</linearGradient>
<linearGradient id="linear1" gradientUnits="userSpaceOnUse" x1="102.40625" y1="157.140625" x2="102.40625" y2="188.356873" gradientTransform="matrix(1.132743,0,0,1.132743,0,0)">
<stop offset="0" style="stop-color:rgb(14.901961%,96.078432%,100%);stop-opacity:1;"/>
<stop offset="1" style="stop-color:rgb(49.019608%,82.352942%,81.568629%);stop-opacity:1;"/>
</linearGradient>
<linearGradient id="linear2" gradientUnits="userSpaceOnUse" x1="134.1875" y1="19.30888" x2="134.1875" y2="190.397934" gradientTransform="matrix(1.132743,0,0,1.132743,0,0)">
<stop offset="0" style="stop-color:rgb(0%,67.843139%,70.980394%);stop-opacity:1;"/>
<stop offset="1" style="stop-color:rgb(22.352941%,65.098041%,63.921571%);stop-opacity:1;"/>
</linearGradient>
<linearGradient id="linear3" gradientUnits="userSpaceOnUse" x1="137.71875" y1="19.30888" x2="137.71875" y2="190.397934" gradientTransform="matrix(4,0,0,4,0,0)">
<stop offset="0" style="stop-color:rgb(0%,67.843139%,70.980394%);stop-opacity:1;"/>
<stop offset="1" style="stop-color:rgb(22.352941%,65.098041%,63.921571%);stop-opacity:1;"/>
</linearGradient>
<linearGradient id="linear4" gradientUnits="userSpaceOnUse" x1="113" y1="19.30888" x2="113" y2="190.397934" gradientTransform="matrix(1.132743,0,0,1.132743,0,0)">
<stop offset="0" style="stop-color:rgb(0%,67.843139%,70.980394%);stop-opacity:1;"/>
<stop offset="1" style="stop-color:rgb(22.352941%,65.098041%,63.921571%);stop-opacity:1;"/>
</linearGradient>
<linearGradient id="linear5" gradientUnits="userSpaceOnUse" x1="33.546879" y1="19.30888" x2="33.546879" y2="190.397934" gradientTransform="matrix(4,0,0,4,0,0)">
<stop offset="0" style="stop-color:rgb(0%,67.843139%,70.980394%);stop-opacity:1;"/>
<stop offset="1" style="stop-color:rgb(22.352941%,65.098041%,63.921571%);stop-opacity:1;"/>
</linearGradient>
<linearGradient id="linear6" gradientUnits="userSpaceOnUse" x1="40.609379" y1="19.30888" x2="40.609379" y2="190.397934" gradientTransform="matrix(4,0,0,4,0,0)">
<stop offset="0" style="stop-color:rgb(0%,67.843139%,70.980394%);stop-opacity:1;"/>
<stop offset="1" style="stop-color:rgb(22.352941%,65.098041%,63.921571%);stop-opacity:1;"/>
</linearGradient>
<linearGradient id="linear7" gradientUnits="userSpaceOnUse" x1="51.203129" y1="19.30888" x2="51.203129" y2="190.397934" gradientTransform="matrix(4,0,0,4,0,0)">
<stop offset="0" style="stop-color:rgb(0%,67.843139%,70.980394%);stop-opacity:1;"/>
<stop offset="1" style="stop-color:rgb(22.352941%,65.098041%,63.921571%);stop-opacity:1;"/>
</linearGradient>
</defs>
<g id="surface23072905">
<path style=" stroke:none;fill-rule:nonzero;fill:url(#linear0);" d="M 204 196 C 204 204.800781 196.800781 212 188 212 C 179.199219 212 172 204.800781 172 196 C 172 187.199219 179.199219 180 188 180 C 196.800781 180 204 187.199219 204 196 Z M 204 196 "/>
<path style=" stroke:none;fill-rule:nonzero;fill:url(#linear1);" d="M 132 196 C 132 204.800781 124.800781 212 116 212 C 107.199219 212 100 204.800781 100 196 C 100 187.199219 107.199219 180 116 180 C 124.800781 180 132 187.199219 132 196 Z M 132 196 "/>
<path style=" stroke:none;fill-rule:nonzero;fill:url(#linear2);" d="M 188 176 C 178.398438 176 170.398438 182.800781 168.398438 192 L 135.601562 192 C 133.601562 182.800781 125.601562 176 116 176 C 104.800781 176 96 184.800781 96 196 C 96 207.199219 104.800781 216 116 216 C 125.601562 216 133.601562 209.199219 135.601562 200 L 168.398438 200 C 170.398438 209.199219 178.398438 216 188 216 C 199.199219 216 208 207.199219 208 196 C 208 184.800781 199.199219 176 188 176 Z M 116 208 C 109.199219 208 104 202.800781 104 196 C 104 189.199219 109.199219 184 116 184 C 122.800781 184 128 189.199219 128 196 C 128 202.800781 122.800781 208 116 208 Z M 188 208 C 181.199219 208 176 202.800781 176 196 C 176 189.199219 181.199219 184 188 184 C 194.800781 184 200 189.199219 200 196 C 200 202.800781 194.800781 208 188 208 Z M 188 208 "/>
<path style=" stroke:none;fill-rule:nonzero;fill:url(#linear3);" d="M 120 132 L 192 132 L 192 140 L 120 140 Z M 120 132 "/>
<path style=" stroke:none;fill-rule:nonzero;fill:url(#linear4);" d="M 220 76 L 87.199219 76 L 81.199219 49.199219 C 80 44 75.199219 40 69.601562 40 L 36 40 C 29.199219 40 24 45.199219 24 52 C 24 58.800781 29.199219 64 36 64 L 52 64 C 58.800781 64 64 58.800781 64 52 L 64 48 L 69.601562 48 C 71.601562 48 73.199219 49.199219 73.601562 51.199219 L 93.601562 140.398438 C 95.601562 149.601562 103.601562 156 113.199219 156 L 200 156 C 208.800781 156 216.800781 150 219.199219 141.601562 L 231.199219 99.199219 C 231.601562 97.601562 232 95.601562 232 93.601562 L 232 88 C 232 81.199219 226.800781 76 220 76 Z M 56 52 C 56 54.398438 54.398438 56 52 56 L 36 56 C 33.601562 56 32 54.398438 32 52 C 32 49.601562 33.601562 48 36 48 L 56 48 Z M 224 93.601562 C 224 94.800781 224 96 223.601562 96.800781 L 211.601562 139.199219 C 210 144.398438 205.199219 148 200 148 L 112.800781 148 C 107.199219 148 102.398438 144 101.199219 138.800781 L 89.199219 84 L 220 84 C 222.398438 84 224 85.601562 224 88 Z M 224 93.601562 "/>
<path style=" stroke:none;fill-rule:nonzero;fill:url(#linear5);" d="M 8 88 L 68 88 L 68 96 L 8 96 Z M 8 88 "/>
<path style=" stroke:none;fill-rule:nonzero;fill:url(#linear6);" d="M 16 112 L 76 112 L 76 120 L 16 120 Z M 16 112 "/>
<path style=" stroke:none;fill-rule:nonzero;fill:url(#linear7);" d="M 32 136 L 84 136 L 84 144 L 32 144 Z M 32 136 "/>
</g>
</svg>
